<?xml version="1.0" encoding="UTF-8"?>
<!DOCTYPE svg PUBLIC "-//W3C//DTD SVG 1.1//EN" "http://www.w3.org/Graphics/SVG/1.1/DTD/svg11.dtd">
<svg xmlns="http://www.w3.org/2000/svg" version="1.1" width="526px" height="520px" style="shape-rendering:geometricPrecision; text-rendering:geometricPrecision; image-rendering:optimizeQuality; fill-rule:evenodd; clip-rule:evenodd" xmlns:xlink="http://www.w3.org/1999/xlink">
<g><path style="opacity:1" fill="#fefefe" d="M 1.5,-0.5 C 176.167,-0.5 350.833,-0.5 525.5,-0.5C 525.5,172.833 525.5,346.167 525.5,519.5C 350.833,519.5 176.167,519.5 1.5,519.5C 1.5,346.167 1.5,172.833 1.5,-0.5 Z"/></g>
<g><path style="opacity:1" fill="#016cff" d="M 69.5,6.5 C 78.7244,5.38908 87.0577,7.55575 94.5,13C 124.667,43.1667 154.833,73.3333 185,103.5C 192.294,115.768 192.294,128.102 185,140.5C 168.015,158.319 150.848,175.985 133.5,193.5C 158.358,242.2 190.358,285.7 229.5,324C 261.656,351.338 296.489,374.838 334,394.5C 351.528,376.638 369.362,359.138 387.5,342C 399.5,334.667 411.5,334.667 423.5,342C 455.028,373.194 486.195,404.694 517,436.5C 524.393,448.367 524.06,460.034 516,471.5C 509.277,479.611 501.444,486.444 492.5,492C 431.413,522.971 369.746,524.304 307.5,496C 212.612,448.464 133.445,381.964 70,296.5C 45.8596,263.893 27.193,228.226 14,189.5C 8.54715,171.205 5.38048,152.538 4.5,133.5C 7.49943,93.6582 20.6661,57.6582 44,25.5C 51.0865,17.0635 59.5865,10.7302 69.5,6.5 Z"/></g>
<g><path style="opacity:1" fill="#e2e4ea" d="M -0.5,-0.5 C 0.166667,-0.5 0.833333,-0.5 1.5,-0.5C 1.5,172.833 1.5,346.167 1.5,519.5C 0.833333,519.5 0.166667,519.5 -0.5,519.5C -0.5,346.167 -0.5,172.833 -0.5,-0.5 Z"/></g>
</svg>
