<?xml version="1.0" encoding="UTF-8"?>
<!DOCTYPE svg PUBLIC "-//W3C//DTD SVG 1.1//EN" "http://www.w3.org/Graphics/SVG/1.1/DTD/svg11.dtd">
<svg xmlns="http://www.w3.org/2000/svg" version="1.1" width="528px" height="538px" style="shape-rendering:geometricPrecision; text-rendering:geometricPrecision; image-rendering:optimizeQuality; fill-rule:evenodd; clip-rule:evenodd" xmlns:xlink="http://www.w3.org/1999/xlink">
<g><path style="opacity:1" fill="#fefefe" d="M -0.5,-0.5 C 63.1667,-0.5 126.833,-0.5 190.5,-0.5C 189.525,1.5128 187.858,2.84613 185.5,3.5C 184.197,2.28217 183.197,2.6155 182.5,4.5C 180.108,3.7918 177.941,4.45847 176,6.5C 175.439,5.97814 174.772,5.6448 174,5.5C 167.162,9.32653 159.995,12.1599 152.5,14C 140.79,19.8501 129.457,26.1834 118.5,33C 99.9336,45.5136 82.6002,60.1803 66.5,77C 65.1667,77.6667 63.8333,78.3333 62.5,79C 62.8333,79.3333 63.1667,79.6667 63.5,80C 58.8378,86.6204 53.8378,92.2871 48.5,97C 48.8333,97.3333 49.1667,97.6667 49.5,98C 44.0471,104.408 38.7138,110.908 33.5,117.5C 32.5008,120.161 31.5008,122.828 30.5,125.5C 27.9343,126.806 26.9343,128.639 27.5,131C 25.652,132.518 24.152,134.351 23,136.5C 19.7074,145.085 15.8741,153.418 11.5,161.5C 7.82819,174.144 3.82819,185.81 -0.5,196.5C -0.5,130.833 -0.5,65.1667 -0.5,-0.5 Z"/></g>
<g><path style="opacity:1" fill="#ebebeb" d="M 239.5,-0.5 C 266.833,-0.5 294.167,-0.5 321.5,-0.5C 423.882,25.0546 492.549,87.7213 527.5,187.5C 527.5,198.167 527.5,208.833 527.5,219.5C 509.238,129.741 458.905,64.9081 376.5,25C 296.668,-9.27078 218.001,-6.27078 140.5,34C 59.9571,81.9214 14.2905,152.421 3.5,245.5C 0.312969,292.757 9.1463,338.424 30,382.5C 34.476,393.638 34.6426,404.804 30.5,416C 30.8333,416.333 31.1667,416.667 31.5,417C 23.4757,445.37 15.4757,474.536 7.5,504.5C 7.45344,506.038 8.12011,507.038 9.5,507.5C 8.30284,511.095 7.30284,514.761 6.5,518.5C 5.16337,517.685 4.16337,516.518 3.5,515C 4.13998,509.795 5.13998,504.629 6.5,499.5C 6.29069,498.914 5.95735,498.414 5.5,498C 14.2787,468.561 22.6121,438.395 30.5,407.5C 29.5134,404.678 29.5134,401.678 30.5,398.5C 29.6283,392.347 28.1283,386.347 26,380.5C 11.3134,349.217 2.81341,317.051 0.5,284C -3.16961,190.464 31.4971,113.797 104.5,54C 145.263,23.9051 190.263,5.73841 239.5,-0.5 Z"/></g>
<g><path style="opacity:1" fill="#f6f6f6" d="M 321.5,-0.5 C 328.833,-0.5 336.167,-0.5 343.5,-0.5C 355.721,3.29743 367.721,7.79743 379.5,13C 390.645,18.6656 401.645,24.4989 412.5,30.5C 413.48,31.9814 414.647,33.3147 416,34.5C 416.333,34.1667 416.667,33.8333 417,33.5C 419.822,36.1549 422.989,38.1549 426.5,39.5C 426.351,40.552 426.517,41.552 427,42.5C 428.488,41.8042 429.988,42.1375 431.5,43.5C 439.569,51.1215 447.736,57.7881 456,63.5C 457,65.1667 458,66.8333 459,68.5C 470.307,78.1538 479.973,89.1538 488,101.5C 490.658,104.124 493.325,106.791 496,109.5C 501.386,120.662 507.386,130.995 514,140.5C 518.533,150.925 523.033,160.925 527.5,170.5C 527.5,176.167 527.5,181.833 527.5,187.5C 492.549,87.7213 423.882,25.0546 321.5,-0.5 Z"/></g>
<g><path style="opacity:1" fill="#fefefe" d="M 343.5,-0.5 C 404.833,-0.5 466.167,-0.5 527.5,-0.5C 527.5,56.5 527.5,113.5 527.5,170.5C 523.033,160.925 518.533,150.925 514,140.5C 507.386,130.995 501.386,120.662 496,109.5C 493.325,106.791 490.658,104.124 488,101.5C 479.973,89.1538 470.307,78.1538 459,68.5C 458,66.8333 457,65.1667 456,63.5C 447.736,57.7881 439.569,51.1215 431.5,43.5C 429.988,42.1375 428.488,41.8042 427,42.5C 426.517,41.552 426.351,40.552 426.5,39.5C 422.989,38.1549 419.822,36.1549 417,33.5C 416.667,33.8333 416.333,34.1667 416,34.5C 414.647,33.3147 413.48,31.9814 412.5,30.5C 401.645,24.4989 390.645,18.6656 379.5,13C 367.721,7.79743 355.721,3.29743 343.5,-0.5 Z"/></g>
<g><path style="opacity:1" fill="#e4e4e4" d="M 527.5,219.5 C 527.5,224.5 527.5,229.5 527.5,234.5C 515.651,154.411 475.984,91.5772 408.5,46C 407.251,45.2599 406.251,45.4265 405.5,46.5C 333.653,2.68652 257.653,-6.14682 177.5,20C 83.3362,57.8271 27.1696,126.66 9,226.5C 1.77269,285.411 12.2727,340.911 40.5,393C 30.2333,431.238 19.9,469.404 9.5,507.5C 8.12011,507.038 7.45344,506.038 7.5,504.5C 15.4757,474.536 23.4757,445.37 31.5,417C 31.1667,416.667 30.8333,416.333 30.5,416C 34.6426,404.804 34.476,393.638 30,382.5C 9.1463,338.424 0.312969,292.757 3.5,245.5C 14.2905,152.421 59.9571,81.9214 140.5,34C 218.001,-6.27078 296.668,-9.27078 376.5,25C 458.905,64.9081 509.238,129.741 527.5,219.5 Z"/></g>
<g><path style="opacity:1" fill="#fefefe" d="M 405.5,46.5 C 448.867,75.5934 481.2,113.927 502.5,161.5C 531.694,233.124 530.194,304.124 498,374.5C 455.044,458.75 386.544,507.25 292.5,520C 238.761,525.691 188.095,515.857 140.5,490.5C 102.089,500.352 63.7559,510.352 25.5,520.5C 23.1055,521.015 20.7722,521.681 18.5,522.5C 17.0413,522.433 15.7079,522.766 14.5,523.5C 13.1667,523.833 11.8333,524.167 10.5,524.5C 8.4595,525.519 6.4595,525.519 4.5,524.5C 5.37209,522.55 6.03876,520.55 6.5,518.5C 7.30284,514.761 8.30284,511.095 9.5,507.5C 19.9,469.404 30.2333,431.238 40.5,393C 12.2727,340.911 1.77269,285.411 9,226.5C 27.1696,126.66 83.3362,57.8271 177.5,20C 257.653,-6.14682 333.653,2.68652 405.5,46.5 Z"/></g>
<g><path style="opacity:1" fill="#dddddd" d="M 527.5,234.5 C 527.5,254.833 527.5,275.167 527.5,295.5C 517.399,366.84 484.399,425.674 428.5,472C 353.576,526.784 272.243,540.784 184.5,514C 169.938,507.146 154.772,502.312 139,499.5C 126.361,501.228 113.861,503.728 101.5,507C 77.2076,514.031 52.7076,520.198 28,525.5C 24.5795,524.928 21.4128,523.928 18.5,522.5C 20.7722,521.681 23.1055,521.015 25.5,520.5C 25.7911,521.649 26.6244,522.316 28,522.5C 60.1322,515.804 92.1322,507.804 124,498.5C 124.333,498.833 124.667,499.167 125,499.5C 129.718,498.129 134.552,497.129 139.5,496.5C 144.902,497.351 150.235,498.517 155.5,500C 227.201,531.503 299.534,532.503 372.5,503C 455.571,462.956 505.737,397.789 523,307.5C 530.578,259.072 524.911,211.406 506,164.5C 505.252,162.668 504.252,161.001 503,159.5C 502.536,160.094 502.369,160.761 502.5,161.5C 481.2,113.927 448.867,75.5934 405.5,46.5C 406.251,45.4265 407.251,45.2599 408.5,46C 475.984,91.5772 515.651,154.411 527.5,234.5 Z"/></g>
<g><path style="opacity:1" fill="#046dfd" d="M 393.5,91.5 C 313.955,91.8364 234.455,92.8364 155,94.5C 152.333,91.8333 149.667,91.8333 147,94.5C 145.667,91.8333 144.333,91.8333 143,94.5C 141.667,91.8333 140.333,91.8333 139,94.5C 138.302,93.3094 137.469,92.3094 136.5,91.5C 194.877,49.3801 258.877,38.2134 328.5,58C 352.235,65.5319 373.902,76.6986 393.5,91.5 Z"/></g>
<g><path style="opacity:1" fill="#0073fe" d="M 136.5,91.5 C 137.469,92.3094 138.302,93.3094 139,94.5C 140.333,91.8333 141.667,91.8333 143,94.5C 144.333,91.8333 145.667,91.8333 147,94.5C 149.667,91.8333 152.333,91.8333 155,94.5C 234.455,92.8364 313.955,91.8364 393.5,91.5C 402.812,98.1468 411.145,105.813 418.5,114.5C 402.83,114.333 387.163,114.5 371.5,115C 376.167,115.333 380.833,115.667 385.5,116C 293.332,116.832 201.332,116.666 109.5,115.5C 112.963,111.536 116.63,107.702 120.5,104C 125.422,99.2368 130.756,95.0701 136.5,91.5 Z"/></g>
<g><path style="opacity:1" fill="#0079fe" d="M 418.5,114.5 C 421.797,117.296 424.964,120.296 428,123.5C 431.752,128.018 435.252,132.684 438.5,137.5C 397.669,138.333 356.669,138.833 315.5,139C 320.167,139.333 324.833,139.667 329.5,140C 249.332,140.832 169.332,140.666 89.5,139.5C 95.7006,131.091 102.367,123.091 109.5,115.5C 201.332,116.666 293.332,116.832 385.5,116C 380.833,115.667 376.167,115.333 371.5,115C 387.163,114.5 402.83,114.333 418.5,114.5 Z"/></g>
<g><path style="opacity:1" fill="#0280fe" d="M 438.5,137.5 C 445.168,146.159 450.835,155.493 455.5,165.5C 382.334,166.333 309.001,166.833 235.5,167C 253.5,167.333 271.5,167.667 289.5,168C 261.835,168.5 234.169,168.667 206.5,168.5C 203.775,163.378 201.275,158.045 199,152.5C 194.793,145.109 188.46,142.442 180,144.5C 173.966,144.179 168.132,145.013 162.5,147C 154.554,153.108 147.887,160.274 142.5,168.5C 119.142,169.156 96.1424,168.49 73.5,166.5C 78.0446,156.973 83.378,147.973 89.5,139.5C 169.332,140.666 249.332,140.832 329.5,140C 324.833,139.667 320.167,139.333 315.5,139C 356.669,138.833 397.669,138.333 438.5,137.5 Z"/></g>
<g><path style="opacity:1" fill="#fdfeff" d="M 206.5,168.5 C 208.981,176.118 211.981,183.451 215.5,190.5C 217.029,195.25 218.863,199.916 221,204.5C 221.498,207.482 221.665,210.482 221.5,213.5C 216.643,222.032 210.976,230.032 204.5,237.5C 200.829,240.249 199.663,243.916 201,248.5C 204.594,254.698 208.428,260.698 212.5,266.5C 218.784,275.118 225.784,283.118 233.5,290.5C 242.026,299.362 251.692,306.695 262.5,312.5C 272.787,319.143 283.787,324.476 295.5,328.5C 297.577,328.308 299.577,327.808 301.5,327C 305.712,322.293 309.712,317.46 313.5,312.5C 318.364,306.645 323.364,300.812 328.5,295C 329.5,294.833 330.5,294.667 331.5,294.5C 345.519,299.676 359.186,305.676 372.5,312.5C 379.408,315.954 386.408,319.454 393.5,323C 395.037,324.11 395.703,325.61 395.5,327.5C 395.931,340.441 392.931,352.441 386.5,363.5C 376.784,374.368 364.784,381.701 350.5,385.5C 346.127,385.982 341.794,386.648 337.5,387.5C 308.829,384.17 281.496,376.17 255.5,363.5C 240.736,355.73 227.07,346.397 214.5,335.5C 206.201,328.868 198.534,321.535 191.5,313.5C 184.427,305.767 177.76,297.767 171.5,289.5C 166.312,281.111 160.646,273.111 154.5,265.5C 148.687,256.207 143.687,246.54 139.5,236.5C 137.159,228.47 135.159,220.47 133.5,212.5C 133.244,205.776 133.577,199.109 134.5,192.5C 136.544,184.336 139.211,176.336 142.5,168.5C 147.887,160.274 154.554,153.108 162.5,147C 168.132,145.013 173.966,144.179 180,144.5C 188.46,142.442 194.793,145.109 199,152.5C 201.275,158.045 203.775,163.378 206.5,168.5 Z"/></g>
<g><path style="opacity:1" fill="#d8d8d8" d="M 25.5,520.5 C 63.7559,510.352 102.089,500.352 140.5,490.5C 188.095,515.857 238.761,525.691 292.5,520C 386.544,507.25 455.044,458.75 498,374.5C 530.194,304.124 531.694,233.124 502.5,161.5C 502.369,160.761 502.536,160.094 503,159.5C 504.252,161.001 505.252,162.668 506,164.5C 524.911,211.406 530.578,259.072 523,307.5C 505.737,397.789 455.571,462.956 372.5,503C 299.534,532.503 227.201,531.503 155.5,500C 150.235,498.517 144.902,497.351 139.5,496.5C 134.552,497.129 129.718,498.129 125,499.5C 124.667,499.167 124.333,498.833 124,498.5C 92.1322,507.804 60.1322,515.804 28,522.5C 26.6244,522.316 25.7911,521.649 25.5,520.5 Z"/></g>
<g><path style="opacity:1" fill="#0086fe" d="M 455.5,165.5 C 459.875,172.258 463.208,179.591 465.5,187.5C 465.5,188.5 465.5,189.5 465.5,190.5C 382.167,190.5 298.833,190.5 215.5,190.5C 211.981,183.451 208.981,176.118 206.5,168.5C 234.169,168.667 261.835,168.5 289.5,168C 271.5,167.667 253.5,167.333 235.5,167C 309.001,166.833 382.334,166.333 455.5,165.5 Z"/></g>
<g><path style="opacity:1" fill="#0486fe" d="M 73.5,166.5 C 96.1424,168.49 119.142,169.156 142.5,168.5C 139.211,176.336 136.544,184.336 134.5,192.5C 110.5,192.5 86.5,192.5 62.5,192.5C 65.0972,183.314 68.7639,174.648 73.5,166.5 Z"/></g>
<g><path style="opacity:1" fill="#018cfe" d="M 465.5,187.5 C 469.141,195.764 471.808,204.431 473.5,213.5C 391.289,213.836 309.122,214.836 227,216.5C 225.351,215.047 223.518,214.047 221.5,213.5C 221.665,210.482 221.498,207.482 221,204.5C 218.863,199.916 217.029,195.25 215.5,190.5C 298.833,190.5 382.167,190.5 465.5,190.5C 465.5,189.5 465.5,188.5 465.5,187.5 Z"/></g>
<g><path style="opacity:1" fill="#028cfe" d="M 62.5,192.5 C 86.5,192.5 110.5,192.5 134.5,192.5C 133.577,199.109 133.244,205.776 133.5,212.5C 133.5,213.833 133.5,215.167 133.5,216.5C 131.876,216.64 130.71,215.973 130,214.5C 128.667,217.167 127.333,217.167 126,214.5C 124.667,217.167 123.333,217.167 122,214.5C 120.667,217.167 119.333,217.167 118,214.5C 116.667,217.167 115.333,217.167 114,214.5C 112.667,217.167 111.333,217.167 110,214.5C 108.667,217.167 107.333,217.167 106,214.5C 104.667,217.167 103.333,217.167 102,214.5C 100.667,217.167 99.3333,217.167 98,214.5C 84.0782,216.472 69.9115,217.139 55.5,216.5C 56.6105,208.043 58.9438,200.043 62.5,192.5 Z"/></g>
<g><path style="opacity:1" fill="#0592fe" d="M 133.5,212.5 C 135.159,220.47 137.159,228.47 139.5,236.5C 139.657,237.873 139.49,239.207 139,240.5C 137.667,237.833 136.333,237.833 135,240.5C 134.333,237.833 133.667,237.833 133,240.5C 132.333,237.833 131.667,237.833 131,240.5C 129.667,237.833 128.333,237.833 127,240.5C 126.333,237.833 125.667,237.833 125,240.5C 124.333,237.833 123.667,237.833 123,240.5C 122.333,237.833 121.667,237.833 121,240.5C 120.333,237.833 119.667,237.833 119,240.5C 118.333,237.833 117.667,237.833 117,240.5C 116.333,237.833 115.667,237.833 115,240.5C 114.333,237.833 113.667,237.833 113,240.5C 112.333,237.833 111.667,237.833 111,240.5C 110.333,237.833 109.667,237.833 109,240.5C 108.333,237.833 107.667,237.833 107,240.5C 106.333,237.833 105.667,237.833 105,240.5C 104.333,237.833 103.667,237.833 103,240.5C 102.333,237.833 101.667,237.833 101,240.5C 100.333,237.833 99.6667,237.833 99,240.5C 98.3333,237.833 97.6667,237.833 97,240.5C 96.3333,237.833 95.6667,237.833 95,240.5C 94.3333,237.833 93.6667,237.833 93,240.5C 92.3333,237.833 91.6667,237.833 91,240.5C 90.3333,237.833 89.6667,237.833 89,240.5C 88.3333,237.833 87.6667,237.833 87,240.5C 86.6667,239.833 86.3333,239.167 86,238.5C 84.6667,241.167 83.3333,241.167 82,238.5C 81.3333,241.167 80.6667,241.167 80,238.5C 79.3333,241.167 78.6667,241.167 78,238.5C 76.6667,241.167 75.3333,241.167 74,238.5C 72.6667,241.167 71.3333,241.167 70,238.5C 68.6667,241.167 67.3333,241.167 66,238.5C 64.6667,241.167 63.3333,241.167 62,238.5C 60.6667,241.167 59.3333,241.167 58,238.5C 56.6667,241.167 55.3333,241.167 54,238.5C 53.5831,239.756 52.7498,240.423 51.5,240.5C 51.699,232.191 53.0323,224.191 55.5,216.5C 69.9115,217.139 84.0782,216.472 98,214.5C 99.3333,217.167 100.667,217.167 102,214.5C 103.333,217.167 104.667,217.167 106,214.5C 107.333,217.167 108.667,217.167 110,214.5C 111.333,217.167 112.667,217.167 114,214.5C 115.333,217.167 116.667,217.167 118,214.5C 119.333,217.167 120.667,217.167 122,214.5C 123.333,217.167 124.667,217.167 126,214.5C 127.333,217.167 128.667,217.167 130,214.5C 130.71,215.973 131.876,216.64 133.5,216.5C 133.5,215.167 133.5,213.833 133.5,212.5 Z"/></g>
<g><path style="opacity:1" fill="#0192fe" d="M 221.5,213.5 C 223.518,214.047 225.351,215.047 227,216.5C 309.122,214.836 391.289,213.836 473.5,213.5C 475.786,220.196 477.119,227.196 477.5,234.5C 453.187,236.326 428.52,237.159 403.5,237C 421.5,237.333 439.5,237.667 457.5,238C 372.999,238.832 288.666,238.666 204.5,237.5C 210.976,230.032 216.643,222.032 221.5,213.5 Z"/></g>
<g><path style="opacity:1" fill="#0199fe" d="M 477.5,234.5 C 479.158,244.283 479.825,254.283 479.5,264.5C 399.849,265.986 310.849,266.653 212.5,266.5C 208.428,260.698 204.594,254.698 201,248.5C 199.663,243.916 200.829,240.249 204.5,237.5C 288.666,238.666 372.999,238.832 457.5,238C 439.5,237.667 421.5,237.333 403.5,237C 428.52,237.159 453.187,236.326 477.5,234.5 Z"/></g>
<g><path style="opacity:1" fill="#0399fe" d="M 139.5,236.5 C 143.687,246.54 148.687,256.207 154.5,265.5C 130.61,265.844 106.777,266.844 83,268.5C 80.3333,265.833 77.6667,265.833 75,268.5C 73.6667,265.833 72.3333,265.833 71,268.5C 69.6667,265.833 68.3333,265.833 67,268.5C 65.6667,265.833 64.3333,265.833 63,268.5C 61.6667,265.833 60.3333,265.833 59,268.5C 57.6667,265.833 56.3333,265.833 55,268.5C 53.6667,265.833 52.3333,265.833 51,268.5C 50.5005,262.509 50.3338,256.509 50.5,250.5C 50.1872,246.958 50.5206,243.625 51.5,240.5C 52.7498,240.423 53.5831,239.756 54,238.5C 55.3333,241.167 56.6667,241.167 58,238.5C 59.3333,241.167 60.6667,241.167 62,238.5C 63.3333,241.167 64.6667,241.167 66,238.5C 67.3333,241.167 68.6667,241.167 70,238.5C 71.3333,241.167 72.6667,241.167 74,238.5C 75.3333,241.167 76.6667,241.167 78,238.5C 78.6667,241.167 79.3333,241.167 80,238.5C 80.6667,241.167 81.3333,241.167 82,238.5C 83.3333,241.167 84.6667,241.167 86,238.5C 86.3333,239.167 86.6667,239.833 87,240.5C 87.6667,237.833 88.3333,237.833 89,240.5C 89.6667,237.833 90.3333,237.833 91,240.5C 91.6667,237.833 92.3333,237.833 93,240.5C 93.6667,237.833 94.3333,237.833 95,240.5C 95.6667,237.833 96.3333,237.833 97,240.5C 97.6667,237.833 98.3333,237.833 99,240.5C 99.6667,237.833 100.333,237.833 101,240.5C 101.667,237.833 102.333,237.833 103,240.5C 103.667,237.833 104.333,237.833 105,240.5C 105.667,237.833 106.333,237.833 107,240.5C 107.667,237.833 108.333,237.833 109,240.5C 109.667,237.833 110.333,237.833 111,240.5C 111.667,237.833 112.333,237.833 113,240.5C 113.667,237.833 114.333,237.833 115,240.5C 115.667,237.833 116.333,237.833 117,240.5C 117.667,237.833 118.333,237.833 119,240.5C 119.667,237.833 120.333,237.833 121,240.5C 121.667,237.833 122.333,237.833 123,240.5C 123.667,237.833 124.333,237.833 125,240.5C 125.667,237.833 126.333,237.833 127,240.5C 128.333,237.833 129.667,237.833 131,240.5C 131.667,237.833 132.333,237.833 133,240.5C 133.667,237.833 134.333,237.833 135,240.5C 136.333,237.833 137.667,237.833 139,240.5C 139.49,239.207 139.657,237.873 139.5,236.5 Z"/></g>
<g><path style="opacity:1" fill="#019ffe" d="M 479.5,264.5 C 479.683,271.868 479.35,279.201 478.5,286.5C 387.695,288.03 306.029,289.364 233.5,290.5C 225.784,283.118 218.784,275.118 212.5,266.5C 310.849,266.653 399.849,265.986 479.5,264.5 Z"/></g>
<g><path style="opacity:1" fill="#069ffe" d="M 50.5,250.5 C 50.3338,256.509 50.5005,262.509 51,268.5C 52.3333,265.833 53.6667,265.833 55,268.5C 56.3333,265.833 57.6667,265.833 59,268.5C 60.3333,265.833 61.6667,265.833 63,268.5C 64.3333,265.833 65.6667,265.833 67,268.5C 68.3333,265.833 69.6667,265.833 71,268.5C 72.3333,265.833 73.6667,265.833 75,268.5C 77.6667,265.833 80.3333,265.833 83,268.5C 106.777,266.844 130.61,265.844 154.5,265.5C 160.646,273.111 166.312,281.111 171.5,289.5C 131.598,290.829 91.5977,290.829 51.5,289.5C 49.7895,276.371 49.4562,263.371 50.5,250.5 Z"/></g>
<g><path style="opacity:1" fill="#04a5fe" d="M 478.5,286.5 C 477.442,294.579 476.109,302.579 474.5,310.5C 440.722,312.482 406.722,313.149 372.5,312.5C 359.186,305.676 345.519,299.676 331.5,294.5C 330.5,294.667 329.5,294.833 328.5,295C 323.364,300.812 318.364,306.645 313.5,312.5C 296.5,312.5 279.5,312.5 262.5,312.5C 251.692,306.695 242.026,299.362 233.5,290.5C 306.029,289.364 387.695,288.03 478.5,286.5 Z"/></g>
<g><path style="opacity:1" fill="#02a5fe" d="M 51.5,289.5 C 91.5977,290.829 131.598,290.829 171.5,289.5C 177.76,297.767 184.427,305.767 191.5,313.5C 146.67,314.499 101.67,314.832 56.5,314.5C 54.1879,306.327 52.5212,297.994 51.5,289.5 Z"/></g>
<g><path style="opacity:1" fill="#e4e4e4" d="M 527.5,295.5 C 527.5,301.833 527.5,308.167 527.5,314.5C 507.653,404.695 455.987,469.528 372.5,509C 313.782,533.183 254.116,536.85 193.5,520C 176.966,514.254 160.466,508.421 144,502.5C 141.303,502.924 138.303,502.924 135,502.5C 101.351,510.704 67.5179,519.204 33.5,528C 26.4429,529.09 19.7763,528.09 13.5,525C 14.056,524.617 14.3893,524.117 14.5,523.5C 15.7079,522.766 17.0413,522.433 18.5,522.5C 21.4128,523.928 24.5795,524.928 28,525.5C 52.7076,520.198 77.2076,514.031 101.5,507C 113.861,503.728 126.361,501.228 139,499.5C 154.772,502.312 169.938,507.146 184.5,514C 272.243,540.784 353.576,526.784 428.5,472C 484.399,425.674 517.399,366.84 527.5,295.5 Z"/></g>
<g><path style="opacity:1" fill="#11abff" d="M 262.5,312.5 C 279.5,312.5 296.5,312.5 313.5,312.5C 309.712,317.46 305.712,322.293 301.5,327C 299.577,327.808 297.577,328.308 295.5,328.5C 283.787,324.476 272.787,319.143 262.5,312.5 Z"/></g>
<g><path style="opacity:1" fill="#05abfe" d="M 474.5,310.5 C 472.744,319.544 470.077,328.211 466.5,336.5C 443.167,336.5 419.833,336.5 396.5,336.5C 396.81,333.287 396.477,330.287 395.5,327.5C 395.703,325.61 395.037,324.11 393.5,323C 386.408,319.454 379.408,315.954 372.5,312.5C 406.722,313.149 440.722,312.482 474.5,310.5 Z"/></g>
<g><path style="opacity:1" fill="#03abfe" d="M 191.5,313.5 C 198.534,321.535 206.201,328.868 214.5,335.5C 205.676,336.33 196.676,336.83 187.5,337C 192.167,337.333 196.833,337.667 201.5,338C 155.501,338.5 109.501,338.667 63.5,338.5C 60.3603,330.746 58.027,322.746 56.5,314.5C 101.67,314.832 146.67,314.499 191.5,313.5 Z"/></g>
<g><path style="opacity:1" fill="#eaeaea" d="M 527.5,314.5 C 527.5,319.5 527.5,324.5 527.5,329.5C 498.353,431.481 432.686,496.981 330.5,526C 269.108,539.813 209.775,533.813 152.5,508C 147.674,506.44 143.007,505.606 138.5,505.5C 109.007,511.314 79.6741,518.647 50.5,527.5C 49.914,527.291 49.414,526.957 49,526.5C 41.9277,529.457 34.5944,531.457 27,532.5C 24.4101,531.622 22.0768,531.622 20,532.5C 18.5093,530.996 16.676,530.163 14.5,530C 11.1256,529.19 9.79227,527.357 10.5,524.5C 11.8333,524.167 13.1667,523.833 14.5,523.5C 14.3893,524.117 14.056,524.617 13.5,525C 19.7763,528.09 26.4429,529.09 33.5,528C 67.5179,519.204 101.351,510.704 135,502.5C 138.303,502.924 141.303,502.924 144,502.5C 160.466,508.421 176.966,514.254 193.5,520C 254.116,536.85 313.782,533.183 372.5,509C 455.987,469.528 507.653,404.695 527.5,314.5 Z"/></g>
<g><path style="opacity:1" fill="#f3f3f3" d="M 190.5,-0.5 C 206.833,-0.5 223.167,-0.5 239.5,-0.5C 190.263,5.73841 145.263,23.9051 104.5,54C 31.4971,113.797 -3.16961,190.464 0.5,284C 2.81341,317.051 11.3134,349.217 26,380.5C 28.1283,386.347 29.6283,392.347 30.5,398.5C 29.5134,401.678 29.5134,404.678 30.5,407.5C 22.6121,438.395 14.2787,468.561 5.5,498C 5.95735,498.414 6.29069,498.914 6.5,499.5C 5.13998,504.629 4.13998,509.795 3.5,515C 4.16337,516.518 5.16337,517.685 6.5,518.5C 6.03876,520.55 5.37209,522.55 4.5,524.5C 6.4595,525.519 8.4595,525.519 10.5,524.5C 9.79227,527.357 11.1256,529.19 14.5,530C 16.676,530.163 18.5093,530.996 20,532.5C 22.0768,531.622 24.4101,531.622 27,532.5C 34.5944,531.457 41.9277,529.457 49,526.5C 49.414,526.957 49.914,527.291 50.5,527.5C 79.6741,518.647 109.007,511.314 138.5,505.5C 143.007,505.606 147.674,506.44 152.5,508C 209.775,533.813 269.108,539.813 330.5,526C 432.686,496.981 498.353,431.481 527.5,329.5C 527.5,339.5 527.5,349.5 527.5,359.5C 526.814,360.848 525.814,362.015 524.5,363C 525.554,364.388 525.72,365.888 525,367.5C 521.988,371.879 519.821,376.713 518.5,382C 516.002,384.66 514.002,387.66 512.5,391C 512.957,391.414 513.291,391.914 513.5,392.5C 509.368,399.265 505.368,406.099 501.5,413C 497.718,417.099 494.385,421.432 491.5,426C 491.957,426.414 492.291,426.914 492.5,427.5C 488.239,430.004 485.405,433.671 484,438.5C 480.063,440.973 477.063,444.307 475,448.5C 470.117,452.716 465.951,457.549 462.5,463C 454.652,468.152 447.819,474.319 442,481.5C 437.379,483.047 433.379,486.047 430,490.5C 429,490.5 428,490.5 427,490.5C 426.751,491.624 426.251,492.624 425.5,493.5C 421.889,494.862 418.722,496.862 416,499.5C 412.878,499.758 410.211,501.425 408,504.5C 407.667,504.167 407.333,503.833 407,503.5C 401.755,506.744 396.589,510.077 391.5,513.5C 384.189,515.985 377.356,519.318 371,523.5C 369.274,522.424 367.441,522.257 365.5,523C 365.833,523.333 366.167,523.667 366.5,524C 360.658,526.203 355.158,528.37 350,530.5C 349.667,530.167 349.333,529.833 349,529.5C 346.667,530.5 344.333,531.5 342,532.5C 339.816,531.892 337.816,532.559 336,534.5C 333.427,535.64 330.927,535.64 328.5,534.5C 327.692,534.808 327.025,535.308 326.5,536C 330.025,536.179 333.359,536.679 336.5,537.5C 289.5,537.5 242.5,537.5 195.5,537.5C 199.647,536.675 203.981,536.175 208.5,536C 205.435,535.422 202.268,534.255 199,532.5C 196.911,532.745 194.911,532.745 193,532.5C 182.035,528.953 170.868,525.12 159.5,521C 156.428,520.002 153.594,518.502 151,516.5C 148.14,516.112 145.14,516.112 142,516.5C 139.667,513.833 137.333,513.833 135,516.5C 134.333,515.833 133.667,515.167 133,514.5C 129.443,516.643 126.11,517.309 123,516.5C 119.99,517.014 116.99,518.347 114,520.5C 112.732,520.384 111.398,520.051 110,519.5C 108.316,521.701 106.316,522.367 104,521.5C 103.683,523.301 103.016,523.634 102,522.5C 100.676,523.88 99.3431,524.214 98,523.5C 95.5657,525.023 92.899,526.023 90,526.5C 88.6569,525.786 87.3236,526.12 86,527.5C 85.6667,527.167 85.3333,526.833 85,526.5C 79.5961,529.061 74.0961,530.394 68.5,530.5C 66.5753,530.837 65.0753,532.17 64,534.5C 61.3333,533.167 58.6667,533.167 56,534.5C 55.2496,535.126 54.4162,535.626 53.5,536C 58.6835,536.174 63.6835,536.674 68.5,537.5C 45.5,537.5 22.5,537.5 -0.5,537.5C -0.5,520.167 -0.5,502.833 -0.5,485.5C 1.50891,483.622 1.84225,481.456 0.5,479C 3.37861,476.055 4.04528,473.055 2.5,470C 3.42797,469.612 4.09464,468.945 4.5,468C 5.01721,465.923 5.68388,463.923 6.5,462C 6.16667,461.667 5.83333,461.333 5.5,461C 7.01689,458.796 8.35023,456.462 9.5,454C 9.15991,451 9.82658,448 11.5,445C 10.7865,443.657 11.1198,442.324 12.5,441C 12.3842,439.732 12.0509,438.398 11.5,437C 13.3008,436.683 13.6341,436.016 12.5,435C 14.64,432.934 15.3067,430.6 14.5,428C 17.0556,425.494 18.0556,422.661 17.5,419.5C 18.0736,417.941 18.7402,416.441 19.5,415C 18.5419,413.853 18.8753,412.853 20.5,412C 20.2795,410.201 19.9461,408.368 19.5,406.5C 20.9686,404.808 21.6353,402.808 21.5,400.5C 20.9563,398.326 20.9563,396.326 21.5,394.5C 21.032,392.866 20.032,391.7 18.5,391C 18.9574,390.586 19.2907,390.086 19.5,389.5C 18.846,387.885 18.346,386.218 18,384.5C 12.277,373.421 7.44371,361.921 3.5,350C 3.95735,349.586 4.29069,349.086 4.5,348.5C 3.16667,345.833 1.83333,343.167 0.5,340.5C 0.723005,339.033 1.05634,337.533 1.5,336C 0.934056,335.005 0.267389,334.172 -0.5,333.5C -0.5,287.833 -0.5,242.167 -0.5,196.5C 3.82819,185.81 7.82819,174.144 11.5,161.5C 15.8741,153.418 19.7074,145.085 23,136.5C 24.152,134.351 25.652,132.518 27.5,131C 26.9343,128.639 27.9343,126.806 30.5,125.5C 31.5008,122.828 32.5008,120.161 33.5,117.5C 38.7138,110.908 44.0471,104.408 49.5,98C 49.1667,97.6667 48.8333,97.3333 48.5,97C 53.8378,92.2871 58.8378,86.6204 63.5,80C 63.1667,79.6667 62.8333,79.3333 62.5,79C 63.8333,78.3333 65.1667,77.6667 66.5,77C 82.6002,60.1803 99.9336,45.5136 118.5,33C 129.457,26.1834 140.79,19.8501 152.5,14C 159.995,12.1599 167.162,9.32653 174,5.5C 174.772,5.6448 175.439,5.97814 176,6.5C 177.941,4.45847 180.108,3.7918 182.5,4.5C 183.197,2.6155 184.197,2.28217 185.5,3.5C 187.858,2.84613 189.525,1.5128 190.5,-0.5 Z"/></g>
<g><path style="opacity:1" fill="#fcfcfc" d="M -0.5,333.5 C 0.267389,334.172 0.934056,335.005 1.5,336C 1.05634,337.533 0.723005,339.033 0.5,340.5C 1.83333,343.167 3.16667,345.833 4.5,348.5C 4.29069,349.086 3.95735,349.586 3.5,350C 7.44371,361.921 12.277,373.421 18,384.5C 18.346,386.218 18.846,387.885 19.5,389.5C 19.2907,390.086 18.9574,390.586 18.5,391C 20.032,391.7 21.032,392.866 21.5,394.5C 20.9563,396.326 20.9563,398.326 21.5,400.5C 21.6353,402.808 20.9686,404.808 19.5,406.5C 19.9461,408.368 20.2795,410.201 20.5,412C 18.8753,412.853 18.5419,413.853 19.5,415C 18.7402,416.441 18.0736,417.941 17.5,419.5C 18.0556,422.661 17.0556,425.494 14.5,428C 15.3067,430.6 14.64,432.934 12.5,435C 13.6341,436.016 13.3008,436.683 11.5,437C 12.0509,438.398 12.3842,439.732 12.5,441C 11.1198,442.324 10.7865,443.657 11.5,445C 9.82658,448 9.15991,451 9.5,454C 8.35023,456.462 7.01689,458.796 5.5,461C 5.83333,461.333 6.16667,461.667 6.5,462C 5.68388,463.923 5.01721,465.923 4.5,468C 4.09464,468.945 3.42797,469.612 2.5,470C 4.04528,473.055 3.37861,476.055 0.5,479C 1.84225,481.456 1.50891,483.622 -0.5,485.5C -0.5,434.833 -0.5,384.167 -0.5,333.5 Z"/></g>
<g><path style="opacity:1" fill="#03b2fe" d="M 214.5,335.5 C 227.07,346.397 240.736,355.73 255.5,363.5C 206.335,364.333 157.002,364.833 107.5,365C 125.5,365.333 143.5,365.667 161.5,366C 133.5,366.667 105.5,366.667 77.5,366C 77.8333,365.667 78.1667,365.333 78.5,365C 77.552,364.517 76.552,364.351 75.5,364.5C 70.9899,356.142 66.9899,347.475 63.5,338.5C 109.501,338.667 155.501,338.5 201.5,338C 196.833,337.667 192.167,337.333 187.5,337C 196.676,336.83 205.676,336.33 214.5,335.5 Z"/></g>
<g><path style="opacity:1" fill="#07b2fe" d="M 395.5,327.5 C 396.477,330.287 396.81,333.287 396.5,336.5C 419.833,336.5 443.167,336.5 466.5,336.5C 463.476,346.237 459.476,355.57 454.5,364.5C 453.25,364.423 452.417,363.756 452,362.5C 451.333,365.167 450.667,365.167 450,362.5C 449.333,365.167 448.667,365.167 448,362.5C 447.333,365.167 446.667,365.167 446,362.5C 445.333,365.167 444.667,365.167 444,362.5C 443.333,365.167 442.667,365.167 442,362.5C 441.333,365.167 440.667,365.167 440,362.5C 439.333,365.167 438.667,365.167 438,362.5C 436.667,365.167 435.333,365.167 434,362.5C 433.333,365.167 432.667,365.167 432,362.5C 431.333,365.167 430.667,365.167 430,362.5C 428.667,365.167 427.333,365.167 426,362.5C 424.667,365.167 423.333,365.167 422,362.5C 420.667,365.167 419.333,365.167 418,362.5C 416.667,365.167 415.333,365.167 414,362.5C 412.667,365.167 411.333,365.167 410,362.5C 408.667,365.167 407.333,365.167 406,362.5C 404.667,365.167 403.333,365.167 402,362.5C 399.333,365.167 396.667,365.167 394,362.5C 392.991,363.658 391.658,364.325 390,364.5C 388.615,364.486 387.449,364.152 386.5,363.5C 392.931,352.441 395.931,340.441 395.5,327.5 Z"/></g>
<g><path style="opacity:1" fill="#fefefe" d="M 527.5,359.5 C 527.5,418.833 527.5,478.167 527.5,537.5C 463.833,537.5 400.167,537.5 336.5,537.5C 333.359,536.679 330.025,536.179 326.5,536C 327.025,535.308 327.692,534.808 328.5,534.5C 330.927,535.64 333.427,535.64 336,534.5C 337.816,532.559 339.816,531.892 342,532.5C 344.333,531.5 346.667,530.5 349,529.5C 349.333,529.833 349.667,530.167 350,530.5C 355.158,528.37 360.658,526.203 366.5,524C 366.167,523.667 365.833,523.333 365.5,523C 367.441,522.257 369.274,522.424 371,523.5C 377.356,519.318 384.189,515.985 391.5,513.5C 396.589,510.077 401.755,506.744 407,503.5C 407.333,503.833 407.667,504.167 408,504.5C 410.211,501.425 412.878,499.758 416,499.5C 418.722,496.862 421.889,494.862 425.5,493.5C 426.251,492.624 426.751,491.624 427,490.5C 428,490.5 429,490.5 430,490.5C 433.379,486.047 437.379,483.047 442,481.5C 447.819,474.319 454.652,468.152 462.5,463C 465.951,457.549 470.117,452.716 475,448.5C 477.063,444.307 480.063,440.973 484,438.5C 485.405,433.671 488.239,430.004 492.5,427.5C 492.291,426.914 491.957,426.414 491.5,426C 494.385,421.432 497.718,417.099 501.5,413C 505.368,406.099 509.368,399.265 513.5,392.5C 513.291,391.914 512.957,391.414 512.5,391C 514.002,387.66 516.002,384.66 518.5,382C 519.821,376.713 521.988,371.879 525,367.5C 525.72,365.888 525.554,364.388 524.5,363C 525.814,362.015 526.814,360.848 527.5,359.5 Z"/></g>
<g><path style="opacity:1" fill="#08b8fe" d="M 454.5,364.5 C 450.001,372.836 445.001,380.836 439.5,388.5C 437.961,386.018 436.461,386.018 435,388.5C 433.667,385.833 432.333,385.833 431,388.5C 430.333,385.833 429.667,385.833 429,388.5C 428.333,385.833 427.667,385.833 427,388.5C 425.667,385.833 424.333,385.833 423,388.5C 422.333,385.833 421.667,385.833 421,388.5C 420.333,385.833 419.667,385.833 419,388.5C 418.333,385.833 417.667,385.833 417,388.5C 416.333,385.833 415.667,385.833 415,388.5C 414.333,385.833 413.667,385.833 413,388.5C 412.333,385.833 411.667,385.833 411,388.5C 410.333,385.833 409.667,385.833 409,388.5C 408.333,385.833 407.667,385.833 407,388.5C 406.333,385.833 405.667,385.833 405,388.5C 404.333,385.833 403.667,385.833 403,388.5C 402.333,385.833 401.667,385.833 401,388.5C 400.333,385.833 399.667,385.833 399,388.5C 398.333,385.833 397.667,385.833 397,388.5C 396.333,385.833 395.667,385.833 395,388.5C 394.333,385.833 393.667,385.833 393,388.5C 392.333,385.833 391.667,385.833 391,388.5C 390.333,385.833 389.667,385.833 389,388.5C 388.333,385.833 387.667,385.833 387,388.5C 386.333,385.833 385.667,385.833 385,388.5C 384.333,385.833 383.667,385.833 383,388.5C 382.667,387.833 382.333,387.167 382,386.5C 380.667,389.167 379.333,389.167 378,386.5C 376.667,389.167 375.333,389.167 374,386.5C 372.667,389.167 371.333,389.167 370,386.5C 368.667,389.167 367.333,389.167 366,386.5C 364.667,389.167 363.333,389.167 362,386.5C 360.667,389.167 359.333,389.167 358,386.5C 356.667,389.167 355.333,389.167 354,386.5C 353.29,387.973 352.124,388.64 350.5,388.5C 350.5,387.5 350.5,386.5 350.5,385.5C 364.784,381.701 376.784,374.368 386.5,363.5C 387.449,364.152 388.615,364.486 390,364.5C 391.658,364.325 392.991,363.658 394,362.5C 396.667,365.167 399.333,365.167 402,362.5C 403.333,365.167 404.667,365.167 406,362.5C 407.333,365.167 408.667,365.167 410,362.5C 411.333,365.167 412.667,365.167 414,362.5C 415.333,365.167 416.667,365.167 418,362.5C 419.333,365.167 420.667,365.167 422,362.5C 423.333,365.167 424.667,365.167 426,362.5C 427.333,365.167 428.667,365.167 430,362.5C 430.667,365.167 431.333,365.167 432,362.5C 432.667,365.167 433.333,365.167 434,362.5C 435.333,365.167 436.667,365.167 438,362.5C 438.667,365.167 439.333,365.167 440,362.5C 440.667,365.167 441.333,365.167 442,362.5C 442.667,365.167 443.333,365.167 444,362.5C 444.667,365.167 445.333,365.167 446,362.5C 446.667,365.167 447.333,365.167 448,362.5C 448.667,365.167 449.333,365.167 450,362.5C 450.667,365.167 451.333,365.167 452,362.5C 452.417,363.756 453.25,364.423 454.5,364.5 Z"/></g>
<g><path style="opacity:1" fill="#03b8fe" d="M 255.5,363.5 C 281.496,376.17 308.829,384.17 337.5,387.5C 254.335,388.499 171.002,388.833 87.5,388.5C 87.6567,387.127 87.49,385.793 87,384.5C 82.9021,377.969 79.0688,371.302 75.5,364.5C 76.552,364.351 77.552,364.517 78.5,365C 78.1667,365.333 77.8333,365.667 77.5,366C 105.5,366.667 133.5,366.667 161.5,366C 143.5,365.667 125.5,365.333 107.5,365C 157.002,364.833 206.335,364.333 255.5,363.5 Z"/></g>
<g><path style="opacity:1" fill="#01befe" d="M 350.5,385.5 C 350.5,386.5 350.5,387.5 350.5,388.5C 352.124,388.64 353.29,387.973 354,386.5C 355.333,389.167 356.667,389.167 358,386.5C 359.333,389.167 360.667,389.167 362,386.5C 363.333,389.167 364.667,389.167 366,386.5C 367.333,389.167 368.667,389.167 370,386.5C 371.333,389.167 372.667,389.167 374,386.5C 375.333,389.167 376.667,389.167 378,386.5C 379.333,389.167 380.667,389.167 382,386.5C 382.333,387.167 382.667,387.833 383,388.5C 383.667,385.833 384.333,385.833 385,388.5C 385.667,385.833 386.333,385.833 387,388.5C 387.667,385.833 388.333,385.833 389,388.5C 389.667,385.833 390.333,385.833 391,388.5C 391.667,385.833 392.333,385.833 393,388.5C 393.667,385.833 394.333,385.833 395,388.5C 395.667,385.833 396.333,385.833 397,388.5C 397.667,385.833 398.333,385.833 399,388.5C 399.667,385.833 400.333,385.833 401,388.5C 401.667,385.833 402.333,385.833 403,388.5C 403.667,385.833 404.333,385.833 405,388.5C 405.667,385.833 406.333,385.833 407,388.5C 407.667,385.833 408.333,385.833 409,388.5C 409.667,385.833 410.333,385.833 411,388.5C 411.667,385.833 412.333,385.833 413,388.5C 413.667,385.833 414.333,385.833 415,388.5C 415.667,385.833 416.333,385.833 417,388.5C 417.667,385.833 418.333,385.833 419,388.5C 419.667,385.833 420.333,385.833 421,388.5C 421.667,385.833 422.333,385.833 423,388.5C 424.333,385.833 425.667,385.833 427,388.5C 427.667,385.833 428.333,385.833 429,388.5C 429.667,385.833 430.333,385.833 431,388.5C 432.333,385.833 433.667,385.833 435,388.5C 436.461,386.018 437.961,386.018 439.5,388.5C 433.885,396.449 427.552,403.782 420.5,410.5C 416.97,409.989 413.804,410.656 411,412.5C 409.667,409.833 408.333,409.833 407,412.5C 405.667,409.833 404.333,409.833 403,412.5C 401.667,409.833 400.333,409.833 399,412.5C 397.667,409.833 396.333,409.833 395,412.5C 393.667,409.833 392.333,409.833 391,412.5C 389.667,409.833 388.333,409.833 387,412.5C 385.667,409.833 384.333,409.833 383,412.5C 381.667,409.833 380.333,409.833 379,412.5C 377.667,409.833 376.333,409.833 375,412.5C 374.333,409.833 373.667,409.833 373,412.5C 372.333,409.833 371.667,409.833 371,412.5C 369.667,409.833 368.333,409.833 367,412.5C 366.333,409.833 365.667,409.833 365,412.5C 364.333,409.833 363.667,409.833 363,412.5C 362.333,409.833 361.667,409.833 361,412.5C 360.333,409.833 359.667,409.833 359,412.5C 358.333,409.833 357.667,409.833 357,412.5C 356.333,409.833 355.667,409.833 355,412.5C 354.333,409.833 353.667,409.833 353,412.5C 352.333,409.833 351.667,409.833 351,412.5C 350.333,409.833 349.667,409.833 349,412.5C 348.333,409.833 347.667,409.833 347,412.5C 346.333,409.833 345.667,409.833 345,412.5C 344.333,409.833 343.667,409.833 343,412.5C 342.333,409.833 341.667,409.833 341,412.5C 340.333,409.833 339.667,409.833 339,412.5C 338.333,409.833 337.667,409.833 337,412.5C 336.333,409.833 335.667,409.833 335,412.5C 334.333,409.833 333.667,409.833 333,412.5C 332.333,409.833 331.667,409.833 331,412.5C 330.333,409.833 329.667,409.833 329,412.5C 328.333,409.833 327.667,409.833 327,412.5C 326.667,411.833 326.333,411.167 326,410.5C 324.667,413.167 323.333,413.167 322,410.5C 320.667,413.167 319.333,413.167 318,410.5C 316.667,413.167 315.333,413.167 314,410.5C 312.667,413.167 311.333,413.167 310,410.5C 308.667,413.167 307.333,413.167 306,410.5C 304.667,413.167 303.333,413.167 302,410.5C 300.667,413.167 299.333,413.167 298,410.5C 296.667,413.167 295.333,413.167 294,410.5C 292.667,413.167 291.333,413.167 290,410.5C 287.333,413.167 284.667,413.167 282,410.5C 248.713,411.83 215.213,412.497 181.5,412.5C 147.827,412.5 114.493,411.833 81.5,410.5C 82.898,402.899 84.898,395.566 87.5,388.5C 171.002,388.833 254.335,388.499 337.5,387.5C 341.794,386.648 346.127,385.982 350.5,385.5 Z"/></g>
<g><path style="opacity:1" fill="#01c4fe" d="M 81.5,410.5 C 114.493,411.833 147.827,412.5 181.5,412.5C 215.213,412.497 248.713,411.83 282,410.5C 284.667,413.167 287.333,413.167 290,410.5C 291.333,413.167 292.667,413.167 294,410.5C 295.333,413.167 296.667,413.167 298,410.5C 299.333,413.167 300.667,413.167 302,410.5C 303.333,413.167 304.667,413.167 306,410.5C 307.333,413.167 308.667,413.167 310,410.5C 311.333,413.167 312.667,413.167 314,410.5C 315.333,413.167 316.667,413.167 318,410.5C 319.333,413.167 320.667,413.167 322,410.5C 323.333,413.167 324.667,413.167 326,410.5C 326.333,411.167 326.667,411.833 327,412.5C 327.667,409.833 328.333,409.833 329,412.5C 329.667,409.833 330.333,409.833 331,412.5C 331.667,409.833 332.333,409.833 333,412.5C 333.667,409.833 334.333,409.833 335,412.5C 335.667,409.833 336.333,409.833 337,412.5C 337.667,409.833 338.333,409.833 339,412.5C 339.667,409.833 340.333,409.833 341,412.5C 341.667,409.833 342.333,409.833 343,412.5C 343.667,409.833 344.333,409.833 345,412.5C 345.667,409.833 346.333,409.833 347,412.5C 347.667,409.833 348.333,409.833 349,412.5C 349.667,409.833 350.333,409.833 351,412.5C 351.667,409.833 352.333,409.833 353,412.5C 353.667,409.833 354.333,409.833 355,412.5C 355.667,409.833 356.333,409.833 357,412.5C 357.667,409.833 358.333,409.833 359,412.5C 359.667,409.833 360.333,409.833 361,412.5C 361.667,409.833 362.333,409.833 363,412.5C 363.667,409.833 364.333,409.833 365,412.5C 365.667,409.833 366.333,409.833 367,412.5C 368.333,409.833 369.667,409.833 371,412.5C 371.667,409.833 372.333,409.833 373,412.5C 373.667,409.833 374.333,409.833 375,412.5C 376.333,409.833 377.667,409.833 379,412.5C 380.333,409.833 381.667,409.833 383,412.5C 384.333,409.833 385.667,409.833 387,412.5C 388.333,409.833 389.667,409.833 391,412.5C 392.333,409.833 393.667,409.833 395,412.5C 396.333,409.833 397.667,409.833 399,412.5C 400.333,409.833 401.667,409.833 403,412.5C 404.333,409.833 405.667,409.833 407,412.5C 408.333,409.833 409.667,409.833 411,412.5C 413.804,410.656 416.97,409.989 420.5,410.5C 412.76,419.576 404.094,427.576 394.5,434.5C 381.086,433.863 367.919,434.53 355,436.5C 353.667,433.833 352.333,433.833 351,436.5C 349.667,433.833 348.333,433.833 347,436.5C 345.667,433.833 344.333,433.833 343,436.5C 341.667,433.833 340.333,433.833 339,436.5C 337.667,433.833 336.333,433.833 335,436.5C 333.667,433.833 332.333,433.833 331,436.5C 329.667,433.833 328.333,433.833 327,436.5C 325.667,433.833 324.333,433.833 323,436.5C 321.667,433.833 320.333,433.833 319,436.5C 318.333,433.833 317.667,433.833 317,436.5C 316.333,433.833 315.667,433.833 315,436.5C 313.667,433.833 312.333,433.833 311,436.5C 310.333,433.833 309.667,433.833 309,436.5C 308.333,433.833 307.667,433.833 307,436.5C 306.333,433.833 305.667,433.833 305,436.5C 304.333,433.833 303.667,433.833 303,436.5C 302.333,433.833 301.667,433.833 301,436.5C 300.333,433.833 299.667,433.833 299,436.5C 298.333,433.833 297.667,433.833 297,436.5C 296.333,433.833 295.667,433.833 295,436.5C 294.333,433.833 293.667,433.833 293,436.5C 292.333,433.833 291.667,433.833 291,436.5C 290.333,433.833 289.667,433.833 289,436.5C 288.333,433.833 287.667,433.833 287,436.5C 286.333,433.833 285.667,433.833 285,436.5C 284.333,433.833 283.667,433.833 283,436.5C 282.333,433.833 281.667,433.833 281,436.5C 280.333,433.833 279.667,433.833 279,436.5C 278.333,433.833 277.667,433.833 277,436.5C 276.333,433.833 275.667,433.833 275,436.5C 274.333,433.833 273.667,433.833 273,436.5C 272.333,433.833 271.667,433.833 271,436.5C 270.667,435.833 270.333,435.167 270,434.5C 268.667,437.167 267.333,437.167 266,434.5C 264.667,437.167 263.333,437.167 262,434.5C 260.667,437.167 259.333,437.167 258,434.5C 256.667,437.167 255.333,437.167 254,434.5C 252.667,437.167 251.333,437.167 250,434.5C 248.667,437.167 247.333,437.167 246,434.5C 244.667,437.167 243.333,437.167 242,434.5C 240.667,437.167 239.333,437.167 238,434.5C 236.667,437.167 235.333,437.167 234,434.5C 231.333,437.167 228.667,437.167 226,434.5C 200.881,435.829 175.548,436.495 150,436.5C 124.664,436.5 99.4978,436.167 74.5,435.5C 76.0757,426.852 78.409,418.519 81.5,410.5 Z"/></g>
<g><path style="opacity:1" fill="#09c7fd" d="M 394.5,434.5 C 336.011,477.251 271.678,488.751 201.5,469C 190.931,465.588 180.598,461.588 170.5,457C 162.573,452.538 154.573,448.371 146.5,444.5C 119.447,451.513 92.4469,458.346 65.5,465C 68.5952,455.1 71.5952,445.267 74.5,435.5C 99.4978,436.167 124.664,436.5 150,436.5C 175.548,436.495 200.881,435.829 226,434.5C 228.667,437.167 231.333,437.167 234,434.5C 235.333,437.167 236.667,437.167 238,434.5C 239.333,437.167 240.667,437.167 242,434.5C 243.333,437.167 244.667,437.167 246,434.5C 247.333,437.167 248.667,437.167 250,434.5C 251.333,437.167 252.667,437.167 254,434.5C 255.333,437.167 256.667,437.167 258,434.5C 259.333,437.167 260.667,437.167 262,434.5C 263.333,437.167 264.667,437.167 266,434.5C 267.333,437.167 268.667,437.167 270,434.5C 270.333,435.167 270.667,435.833 271,436.5C 271.667,433.833 272.333,433.833 273,436.5C 273.667,433.833 274.333,433.833 275,436.5C 275.667,433.833 276.333,433.833 277,436.5C 277.667,433.833 278.333,433.833 279,436.5C 279.667,433.833 280.333,433.833 281,436.5C 281.667,433.833 282.333,433.833 283,436.5C 283.667,433.833 284.333,433.833 285,436.5C 285.667,433.833 286.333,433.833 287,436.5C 287.667,433.833 288.333,433.833 289,436.5C 289.667,433.833 290.333,433.833 291,436.5C 291.667,433.833 292.333,433.833 293,436.5C 293.667,433.833 294.333,433.833 295,436.5C 295.667,433.833 296.333,433.833 297,436.5C 297.667,433.833 298.333,433.833 299,436.5C 299.667,433.833 300.333,433.833 301,436.5C 301.667,433.833 302.333,433.833 303,436.5C 303.667,433.833 304.333,433.833 305,436.5C 305.667,433.833 306.333,433.833 307,436.5C 307.667,433.833 308.333,433.833 309,436.5C 309.667,433.833 310.333,433.833 311,436.5C 312.333,433.833 313.667,433.833 315,436.5C 315.667,433.833 316.333,433.833 317,436.5C 317.667,433.833 318.333,433.833 319,436.5C 320.333,433.833 321.667,433.833 323,436.5C 324.333,433.833 325.667,433.833 327,436.5C 328.333,433.833 329.667,433.833 331,436.5C 332.333,433.833 333.667,433.833 335,436.5C 336.333,433.833 337.667,433.833 339,436.5C 340.333,433.833 341.667,433.833 343,436.5C 344.333,433.833 345.667,433.833 347,436.5C 348.333,433.833 349.667,433.833 351,436.5C 352.333,433.833 353.667,433.833 355,436.5C 367.919,434.53 381.086,433.863 394.5,434.5 Z"/></g>
<g><path style="opacity:1" fill="#fcfcfc" d="M 195.5,537.5 C 153.167,537.5 110.833,537.5 68.5,537.5C 63.6835,536.674 58.6835,536.174 53.5,536C 54.4162,535.626 55.2496,535.126 56,534.5C 58.6667,533.167 61.3333,533.167 64,534.5C 65.0753,532.17 66.5753,530.837 68.5,530.5C 74.0961,530.394 79.5961,529.061 85,526.5C 85.3333,526.833 85.6667,527.167 86,527.5C 87.3236,526.12 88.6569,525.786 90,526.5C 92.899,526.023 95.5657,525.023 98,523.5C 99.3431,524.214 100.676,523.88 102,522.5C 103.016,523.634 103.683,523.301 104,521.5C 106.316,522.367 108.316,521.701 110,519.5C 111.398,520.051 112.732,520.384 114,520.5C 116.99,518.347 119.99,517.014 123,516.5C 126.11,517.309 129.443,516.643 133,514.5C 133.667,515.167 134.333,515.833 135,516.5C 137.333,513.833 139.667,513.833 142,516.5C 145.14,516.112 148.14,516.112 151,516.5C 153.594,518.502 156.428,520.002 159.5,521C 170.868,525.12 182.035,528.953 193,532.5C 194.911,532.745 196.911,532.745 199,532.5C 202.268,534.255 205.435,535.422 208.5,536C 203.981,536.175 199.647,536.675 195.5,537.5 Z"/></g>
</svg>
