<?xml version="1.0" encoding="UTF-8"?>
<!DOCTYPE svg PUBLIC "-//W3C//DTD SVG 1.1//EN" "http://www.w3.org/Graphics/SVG/1.1/DTD/svg11.dtd">
<svg xmlns="http://www.w3.org/2000/svg" version="1.1" width="587px" height="535px" style="shape-rendering:geometricPrecision; text-rendering:geometricPrecision; image-rendering:optimizeQuality; fill-rule:evenodd; clip-rule:evenodd" xmlns:xlink="http://www.w3.org/1999/xlink">
<g><path style="opacity:1" fill="#e1e4ea" d="M -0.5,-0.5 C 0.166667,-0.5 0.833333,-0.5 1.5,-0.5C 1.5,0.5 1.5,1.5 1.5,2.5C 1.5,3.83333 1.5,5.16667 1.5,6.5C 1.5,182.5 1.5,358.5 1.5,534.5C 0.833333,534.5 0.166667,534.5 -0.5,534.5C -0.5,356.167 -0.5,177.833 -0.5,-0.5 Z"/></g>
<g><path style="opacity:1" fill="#fefeff" d="M 1.5,-0.5 C 196.5,-0.5 391.5,-0.5 586.5,-0.5C 586.5,176.833 586.5,354.167 586.5,531.5C 509.697,430.518 433.03,329.351 356.5,228C 422.5,153 488.5,78 554.5,3C 524.5,2.33333 494.5,2.33333 464.5,3C 413.962,59.2027 363.795,115.703 314,172.5C 271.531,115.731 228.698,59.2307 185.5,3C 124.168,2.5 62.8342,2.33334 1.5,2.5C 1.5,1.5 1.5,0.5 1.5,-0.5 Z"/></g>
<g><path style="opacity:1" fill="#036cff" d="M 1.5,2.5 C 62.8342,2.33334 124.168,2.5 185.5,3C 228.698,59.2307 271.531,115.731 314,172.5C 363.795,115.703 413.962,59.2027 464.5,3C 494.5,2.33333 524.5,2.33333 554.5,3C 488.5,78 422.5,153 356.5,228C 433.03,329.351 509.697,430.518 586.5,531.5C 586.5,532.5 586.5,533.5 586.5,534.5C 526.5,534.5 466.5,534.5 406.5,534.5C 359.251,472.35 311.751,410.35 264,348.5C 209.816,410.239 155.649,471.906 101.5,533.5C 71.662,533.831 41.9953,533.498 12.5,532.5C 81.9577,452.538 151.624,372.705 221.5,293C 148.268,197.341 74.9343,101.841 1.5,6.5C 1.5,5.16667 1.5,3.83333 1.5,2.5 Z"/></g>
<g><path style="opacity:1" fill="#fefeff" d="M 1.5,6.5 C 74.9343,101.841 148.268,197.341 221.5,293C 151.624,372.705 81.9577,452.538 12.5,532.5C 11.6618,532.842 11.3284,533.508 11.5,534.5C 8.16667,534.5 4.83333,534.5 1.5,534.5C 1.5,358.5 1.5,182.5 1.5,6.5 Z"/></g>
<g><path style="opacity:1" fill="#fdfeff" d="M 481.5,479.5 C 465.342,480.496 449.009,480.83 432.5,480.5C 323.388,338.453 214.388,196.287 105.5,54C 123.5,53.3333 141.5,53.3333 159.5,54C 266.964,195.773 374.297,337.607 481.5,479.5 Z"/></g>
<g><path style="opacity:1" fill="#fefefe" d="M 406.5,534.5 C 304.833,534.5 203.167,534.5 101.5,534.5C 101.5,534.167 101.5,533.833 101.5,533.5C 155.649,471.906 209.816,410.239 264,348.5C 311.751,410.35 359.251,472.35 406.5,534.5 Z"/></g>
<g><path style="opacity:1" fill="#bdd9ff" d="M 481.5,479.5 C 482.043,479.56 482.376,479.893 482.5,480.5C 465.671,481.827 449.005,481.827 432.5,480.5C 449.009,480.83 465.342,480.496 481.5,479.5 Z"/></g>
<g><path style="opacity:1" fill="#66a6fe" d="M 12.5,532.5 C 41.9953,533.498 71.662,533.831 101.5,533.5C 101.5,533.833 101.5,534.167 101.5,534.5C 71.5,534.5 41.5,534.5 11.5,534.5C 11.3284,533.508 11.6618,532.842 12.5,532.5 Z"/></g>
</svg>
